<svg width="18" height="26" viewBox="0 0 18 26" xmlns="http://www.w3.org/2000/svg">
    <g fill="#FFF" fill-rule="nonzero">
        <path d="m9.128 25.736 8.017-7.952a.65.65 0 0 0 0-.92l-1.072-1.073a.65.65 0 0 0-.921 0L8.668 22.21l-6.484-6.42a.65.65 0 0 0-.92 0L.19 16.864a.65.65 0 0 0 0 .921l8.017 7.952a.65.65 0 0 0 .92 0z" opacity=".303"/>
        <path d="m9.128 17.936 8.017-7.952a.65.65 0 0 0 0-.92L16.073 7.99a.65.65 0 0 0-.921 0L8.668 14.41 2.184 7.99a.65.65 0 0 0-.92 0L.19 9.064a.65.65 0 0 0 0 .921l8.017 7.952a.65.65 0 0 0 .92 0z" opacity=".601"/>
        <path d="m9.128 10.136 8.017-7.952a.65.65 0 0 0 0-.92L16.073.19a.65.65 0 0 0-.921 0L8.668 6.61 2.184.19a.65.65 0 0 0-.92 0L.19 1.264a.65.65 0 0 0 0 .921l8.017 7.952a.65.65 0 0 0 .92 0z"/>
    </g>
</svg>
