<svg xmlns="http://www.w3.org/2000/svg" width="38" height="39" viewBox="0 0 38 39">
    <g fill="none" fill-rule="evenodd" opacity="1">
        <g fill="#FFF" fill-rule="nonzero" stroke="#FFF">
            <g>
                <g>
                    <g>
                        <path d="M44.327 58.502c.817-.192 1.394-.913 1.394-1.744v-2.805c.945-.394 2.376-1.212 3.192-1.826l2.455 1.402c.726.414 1.644.282 2.22-.32 1.987-2.079 3.492-4.613 4.338-7.43.237-.79-.11-1.638-.833-2.05l-2.459-1.405c.064-.502.116-1.319.116-1.824 0-.505-.052-1.322-.116-1.824l2.46-1.404c.721-.413 1.07-1.261.832-2.052-.846-2.816-2.35-5.35-4.338-7.43-.576-.601-1.494-.733-2.22-.319l-2.455 1.403c-.816-.615-2.247-1.433-3.192-1.827v-2.805c0-.83-.577-1.552-1.394-1.744-2.838-.664-5.815-.664-8.654 0-.817.192-1.394.913-1.394 1.744v2.805c-.945.394-2.376 1.212-3.192 1.827l-2.455-1.403c-.726-.414-1.644-.282-2.22.32-1.987 2.079-3.492 4.613-4.338 7.43-.237.79.11 1.638.833 2.05l2.459 1.405c-.064.502-.116 1.319-.116 1.824 0 .505.052 1.322.116 1.824l-2.46 1.404c-.721.413-1.07 1.261-.832 2.052.846 2.816 2.35 5.35 4.338 7.43.576.601 1.494.733 2.22.319l2.455-1.402c.816.614 2.247 1.432 3.192 1.826v2.805c0 .83.577 1.552 1.394 1.744 2.839.664 5.815.664 8.654 0zM40 56.614c-.922 0-2.404-.15-3.308-.334v-3.99c-2.535-.886-3.269-1.297-5.356-3.062l-3.492 1.994c-1.486-1.647-2.615-3.58-3.312-5.666l3.493-1.995c-.493-2.642-.493-3.48 0-6.122l-3.493-1.995c.697-2.087 1.826-4.019 3.312-5.667l3.492 1.996c2.064-1.748 2.794-2.168 5.356-3.064V24.72c.904-.185 2.386-.334 3.308-.334.922 0 2.404.15 3.308.334v3.99c2.562.895 3.292 1.315 5.356 3.063l3.492-1.996c1.486 1.648 2.615 3.58 3.312 5.667l-3.493 1.995c.493 2.642.493 3.48 0 6.122l3.493 1.995c-.697 2.087-1.826 4.019-3.312 5.666l-3.492-1.994c-2.035 1.72-2.756 2.154-5.356 3.063v3.989c-.904.184-2.386.334-3.308.334zm0-8.953c3.991 0 7.238-3.212 7.238-7.161 0-3.949-3.247-7.161-7.238-7.161-3.991 0-7.238 3.212-7.238 7.161 0 3.949 3.247 7.161 7.238 7.161zm0-2.387c-2.66 0-4.826-2.141-4.826-4.774 0-2.632 2.165-4.774 4.826-4.774 2.66 0 4.826 2.142 4.826 4.774 0 2.633-2.165 4.774-4.826 4.774z" transform="translate(-1771.000000, -54.000000) translate(90.000000, 32.000000) translate(761.000000, 0.000000) translate(899.000000, 1.000000)"/>
                    </g>
                </g>
            </g>
        </g>
    </g>
</svg>
