<svg xmlns="http://www.w3.org/2000/svg" width="38" height="38" viewBox="0 0 38 38">
    <g fill="none" fill-rule="evenodd" opacity="1">
        <g fill="#FFF" fill-rule="nonzero" stroke="#FFF">
            <g>
                <g>
                    <g>
                        <path d="M57.056 57.752l.696-.696c.33-.33.33-.865 0-1.195l-9.07-9.07c-.161-.162-.372-.246-.597-.246h-.725c2.412-2.609 3.889-6.089 3.889-9.92 0-8.08-6.546-14.625-14.625-14.625C28.546 22 22 28.546 22 36.624c0 8.079 6.546 14.625 14.624 14.625 3.832 0 7.312-1.477 9.92-3.882v.718c0 .225.092.436.247.597l9.07 9.07c.33.33.865.33 1.195 0zM36.624 49c-6.84 0-12.374-5.534-12.374-12.375 0-6.84 5.533-12.374 12.374-12.374S49 29.783 49 36.624 43.465 49 36.624 49z" transform="translate(-1681.000000, -54.000000) translate(90.000000, 32.000000) translate(761.000000, 0.000000) translate(809.000000, 1.000000)"/>
                    </g>
                </g>
            </g>
        </g>
    </g>
</svg>
