<?xml version="1.0" standalone="no"?>
<!DOCTYPE svg PUBLIC "-//W3C//DTD SVG 20010904//EN"
 "http://www.w3.org/TR/2001/REC-SVG-20010904/DTD/svg10.dtd">
<svg version="1.0" xmlns="http://www.w3.org/2000/svg"
 width="552.000000pt" height="116.000000pt" viewBox="0 0 552.000000 116.000000"
 preserveAspectRatio="xMidYMid meet">

<g transform="translate(0.000000,116.000000) scale(0.100000,-0.100000)"
fill="#000000" stroke="none">
<path d="M0 580 l0 -580 2760 0 2760 0 0 580 0 580 -2760 0 -2760 0 0 -580z
m715 529 c55 -14 122 -70 146 -123 21 -47 24 -117 7 -167 -10 -30 -190 -350
-208 -372 -4 -4 -55 76 -114 179 -88 152 -109 195 -113 238 -12 118 51 212
167 247 37 11 66 10 115 -2z m-300 -116 c-4 -10 -9 -32 -12 -50 -5 -30 -8 -32
-53 -35 l-48 -3 174 -300 c95 -165 177 -301 181 -302 5 -2 88 134 185 302
l176 305 -54 0 c-51 0 -54 2 -54 24 0 14 -4 36 -10 50 l-10 26 129 0 c98 0
131 -3 140 -14 10 -11 -37 -99 -236 -442 -137 -236 -255 -430 -263 -432 -10
-1 -93 134 -262 426 -137 236 -248 433 -248 439 0 19 19 21 149 22 113 1 123
0 116 -16z m950 -320 c26 -65 50 -121 54 -125 3 -4 29 48 56 115 l50 122 63 3
c34 2 62 2 62 0 0 -2 -40 -93 -88 -203 l-88 -200 -52 -3 c-46 -3 -53 -1 -61
20 -5 13 -45 105 -90 206 l-80 182 63 0 63 0 48 -117z m695 67 l0 -50 -125 0
-125 0 0 -25 c0 -24 1 -24 108 -27 l107 -3 0 -50 0 -50 -107 -3 c-107 -3 -108
-3 -108 -27 l0 -25 125 0 125 0 0 -50 0 -50 -180 0 -180 0 0 205 0 205 180 0
180 0 0 -50z m362 38 c46 -14 97 -68 100 -106 4 -74 -13 -121 -54 -150 -17
-12 -16 -16 22 -72 22 -32 40 -61 40 -64 0 -4 -29 -6 -65 -6 l-65 0 -32 50
c-32 48 -35 50 -80 50 l-48 0 0 -50 0 -50 -55 0 -55 0 0 205 0 205 126 0 c70
0 144 -5 166 -12z m282 -58 c27 -39 50 -70 52 -70 1 0 25 32 53 70 l51 70 65
0 65 0 -90 -118 -90 -118 0 -87 0 -87 -55 0 -55 0 0 91 0 90 -85 110 c-47 60
-85 111 -85 114 0 3 28 5 63 5 l62 0 49 -70z m596 -85 l0 -155 110 0 110 0 0
-50 0 -50 -170 0 -170 0 0 205 0 205 60 0 60 0 0 -155z m585 136 c187 -84 151
-349 -53 -392 -116 -24 -225 23 -268 114 -32 69 -31 122 4 188 39 74 104 109
206 109 47 0 85 -7 111 -19z m515 9 c20 -5 44 -16 55 -24 18 -13 18 -14 -5
-52 -13 -21 -25 -41 -26 -43 -2 -2 -21 4 -44 13 -103 41 -210 -4 -210 -89 0
-85 115 -133 217 -90 19 8 39 15 43 15 9 0 50 -66 50 -81 0 -6 -21 -20 -47
-31 -63 -28 -179 -30 -245 -5 -118 46 -172 190 -109 294 23 37 79 81 118 93
39 12 161 12 203 0z m441 -72 c23 -46 68 -138 100 -205 l58 -123 -59 0 c-56 0
-60 2 -75 30 l-16 30 -98 0 -99 0 -12 -30 c-12 -29 -15 -30 -71 -30 -33 0 -59
2 -59 5 0 6 132 289 166 358 24 47 25 47 74 47 l50 0 41 -82z m319 -73 l0
-155 110 0 110 0 0 -50 0 -50 -165 0 -165 0 0 205 0 205 55 0 55 0 0 -155z"/>
<path d="M612 963 c-39 -19 -54 -44 -54 -88 0 -98 113 -139 176 -64 14 17 26
42 26 55 0 41 -29 85 -65 100 -42 17 -42 17 -83 -3z"/>
<path d="M2240 640 l0 -50 69 0 c76 0 105 15 99 53 -4 30 -44 47 -110 47 l-58
0 0 -50z"/>
<path d="M3712 675 c-64 -28 -76 -121 -22 -170 28 -25 109 -31 148 -11 38 20
52 44 52 91 0 49 -15 74 -55 91 -43 18 -81 17 -123 -1z"/>
<path d="M4726 592 l-26 -52 50 0 50 0 -14 35 c-31 73 -32 73 -60 17z"/>
</g>
</svg>
